PathFileType	4	(X/Y/Z)	C:/Users/opensim2020/Desktop/walking_exp_matlab/subject02_walking04_straight_03.trc																																																																																																																												
DataRate	CameraRate	NumFrames	NumMarkers	Units	OrigDataRate	OrigDataStartFrame	OrigNumFrames																																																																																																																								
100	100	4	42	mm	100	2372	222																																																																																																																								
Frame#	Time	LFHD			RFHD			LBHD			RBHD			C7			T10			CLAV			STRN			RBAK			LSHO			LUPA			LELB			LFRM			LWRA			LWRB			LFIN			RSHO			RUPA			RELB			RFRM			RWRA			RWRB			RFIN			LASI			RASI			LPSI			RPSI			LTHI			LKNE			LTIB			LANK			LHEE			LTOE			RTHI			RKNE			RTIB			RANK			RHEE			RTOE			*39			*40			*41		
		X1	Y1	Z1	X2	Y2	Z2	X3	Y3	Z3	X4	Y4	Z4	X5	Y5	Z5	X6	Y6	Z6	X7	Y7	Z7	X8	Y8	Z8	X9	Y9	Z9	X10	Y10	Z10	X11	Y11	Z11	X12	Y12	Z12	X13	Y13	Z13	X14	Y14	Z14	X15	Y15	Z15	X16	Y16	Z16	X17	Y17	Z17	X18	Y18	Z18	X19	Y19	Z19	X20	Y20	Z20	X21	Y21	Z21	X22	Y22	Z22	X23	Y23	Z23	X24	Y24	Z24	X25	Y25	Z25	X26	Y26	Z26	X27	Y27	Z27	X28	Y28	Z28	X29	Y29	Z29	X30	Y30	Z30	X31	Y31	Z31	X32	Y32	Z32	X33	Y33	Z33	X34	Y34	Z34	X35	Y35	Z35	X36	Y36	Z36	X37	Y37	Z37	X38	Y38	Z38	X39	Y39	Z39	X40	Y40	Z40	X41	Y41	Z41	X42	Y42	Z42
																																																																																																																															
167	1.66	552.53876	1745.44128	-1138.18713	525.05817	1723.36072	-997.03796	424.19281	1674.71582	-1173.48975	384.341	1652.15869	-1036.75854	353.53461	1532.15051	-1101.62366	298.50018	1254.74377	-1092.95044	493.71085	1463.23486	-1106.93469	545.43207	1293.19006	-1097.41968	292.0639	1356.73999	-1037.54431	433.9888	1507.25647	-1277.73401	468.17249	1315.39148	-1372.43188	510.75989	1180.81482	-1395.30798	577.64368	1065.44324	-1403.83313	676.36127	977.62738	-1360.60486	640.03033	959.64325	-1399.80212	687.96552	914.58075	-1401.34717	424.91171	1497.85486	-912.34882	389.10248	1310.22278	-827.61615	403.98224	1163.85803	-805.17969	440.47971	1048.53638	-783.76233	499.3056	926.46234	-801.24902	452.25143	919.12	-769.65875	495.5022	860.97919	-765.80212	534.83661	998.11493	-1233.97046	545.65948	988.56097	-976.64581	326.89368	1034.26514	-1140.88928	326.73468	1034.10193	-1025.91272	461.73709	682.68799	-1268.84119	421.67245	482.05637	-1231.38806	361.18527	295.92639	-1223.14917	365.539	71.92303	-1179.68628	329.79074	44.41643	-1128.6615	523.01373	36.50639	-1186.73035	531.62244	691.59918	-881.53943	587.89862	492.46698	-899.13989	525.61029	315.48068	-901.80872	494.73605	125.41727	-936.79083	473.29852	69.87383	-1000.802	627.4837	55.70936	-884.7149	437.10403	1811.72437	-1067.18652	2845.22729	1033.59631	-3360.30591	NaN	NaN	NaN
168	1.67	562.2981	1744.37708	-1137.96167	534.3429	1722.63086	-996.83411	433.68149	1674.41321	-1173.71936	393.11737	1651.64648	-1037.36707	362.13449	1531.80603	-1102.22778	306.73538	1254.61133	-1092.96338	502.11423	1462.51465	-1107.32043	553.42395	1292.29639	-1098.07458	300.1106	1356.42236	-1038.25928	442.97409	1507.14673	-1278.0321	479.65561	1316.41931	-1373.50647	524.35333	1182.36755	-1396.65723	593.33148	1068.09717	-1404.9801	693.27362	982.04327	-1361.28491	657.60016	963.50757	-1400.8186	706.29486	919.15552	-1401.995	432.89136	1496.95239	-912.79858	395.3457	1309.79761	-828.35815	408.84238	1163.23486	-805.81866	443.93808	1047.63794	-784.02881	501.78888	925.10419	-800.7981	454.60178	918.23553	-769.53461	497.26151	859.63672	-765.31378	541.66504	997.05157	-1234.73486	554.03119	987.98602	-977.04956	334.29865	1033.80676	-1140.41943	334.73633	1033.59937	-1025.68579	466.72308	682.16052	-1268.45764	425.31973	481.79349	-1231.07324	363.27533	296.17307	-1222.72229	365.88379	72.17719	-1179.34668	329.95386	44.80916	-1128.22266	523.23566	36.43275	-1186.87817	541.05536	691.4342	-882.14465	598.70203	492.03729	-901.4057	544.38672	312.20035	-902.97888	521.85162	120.70077	-937.35773	502.98624	64.28468	-1000.8457	658.47308	56.90311	-886.27893	447.0076	1810.99707	-1067.21716	2845.66064	1033.91101	-3357.37842	NaN	NaN	NaN
169	1.68	572.04755	1743.20679	-1137.68433	543.73029	1721.21887	-996.5722	443.12924	1674.01941	-1173.87708	402.17227	1651.61694	-1037.56909	370.75864	1531.21375	-1102.77856	314.7641	1254.21545	-1092.85168	510.61584	1461.69275	-1107.61401	561.49213	1291.39404	-1098.5863	308.24829	1356.02588	-1038.86169	451.87662	1506.80066	-1278.18396	490.85443	1317.13623	-1374.17627	537.61462	1183.75623	-1397.67969	608.58356	1070.77771	-1405.80469	709.80261	986.24341	-1361.87329	674.72064	967.28345	-1401.79736	724.25415	923.95087	-1402.86145	440.83118	1496.06116	-913.14453	401.43716	1309.31604	-829.03357	413.91333	1162.74561	-806.284	448.04117	1046.90833	-783.98322	504.76843	923.76031	-800.37054	457.06702	917.36176	-769.32068	499.01395	858.30255	-764.78815	549.22705	996.172	-1235.19836	562.24261	987.3382	-977.53156	341.87131	1033.21924	-1140.03735	342.72827	1032.97498	-1025.52222	471.92191	681.63403	-1268.35034	429.12448	481.45728	-1230.72412	365.43509	296.44467	-1222.4303	366.23767	72.41222	-1179.02026	330.14926	45.15704	-1127.86877	523.44122	36.34971	-1187.03186	550.35034	691.05823	-882.65131	609.27289	491.09543	-903.6131	563.04669	309.14896	-904.03558	549.23828	116.45082	-937.73602	532.47339	59.08334	-1000.84326	689.09161	58.64738	-887.73676	456.97888	1810.30823	-1067.11694	2845.71362	1033.89392	-3357.48047	NaN	NaN	NaN
170	1.69	581.76959	1741.93665	-1137.33459	552.94293	1719.59778	-996.36169	452.49722	1673.32788	-1173.93616	411.21835	1650.68958	-1037.82544	379.44165	1530.76318	-1103.06262	322.8812	1253.78259	-1092.6886	519.06885	1460.7572	-1107.8092	569.55139	1290.40442	-1098.97571	316.36667	1355.49939	-1039.21411	460.66992	1506.23242	-1278.2594	501.84299	1317.68774	-1374.69604	550.67316	1185.10925	-1398.84155	623.6189	1073.31689	-1406.99414	725.91785	990.42145	-1362.36084	691.32227	970.89069	-1402.56592	741.61816	928.48059	-1403.47461	448.83725	1495.18018	-913.38849	408.01059	1308.69373	-829.55573	419.31366	1162.14868	-806.65533	451.96396	1046.11487	-783.9577	507.48953	922.29437	-799.72406	459.59842	916.37512	-769.05707	500.88034	856.94843	-764.15411	556.80939	995.33679	-1235.34351	570.76019	986.48389	-977.48724	349.79752	1032.51599	-1139.76392	350.71405	1032.14563	-1025.32324	477.29559	680.97266	-1268.26965	433.0347	481.15149	-1230.42322	367.63269	296.69876	-1222.03235	366.55945	72.66368	-1178.6969	330.41364	45.50988	-1127.50757	523.71179	36.4011	-1187.28784	559.40784	690.34229	-883.15753	619.54785	490.2572	-905.98401	581.27173	306.02902	-905.16931	576.51166	112.99312	-937.7724	561.0282	55.05068	-1000.51672	719.22473	61.18991	-889.15802	466.9104	1809.49036	-1066.83484	2845.69678	1033.91528	-3357.3064	NaN	NaN	NaN
